<svg width="552pt" height="636pt" viewBox="0.00 0.00 552.00 636.00" xmlns="http://www.w3.org/2000/svg" xmlns:xlink="http://www.w3.org/1999/xlink">
<g id="graph0" class="graph" transform="scale(1 1) rotate(0) translate(4 631.82)">
<polygon fill="white" stroke="none" points="-4,4 -4,-631.82 547.94,-631.82 547.94,4 -4,4"/>
<!-- 615336326 -->
<g id="node1" class="node">
<title>615336326</title>
<ellipse fill="none" stroke="black" cx="199.48" cy="-547.49" rx="54.49" ry="54.49"/>
<text xml:space="preserve" text-anchor="middle" x="199.48" y="-543.29" font-family="Times,serif" font-size="14.00">615336326</text>
</g>
<!-- 988955720 -->
<g id="node2" class="node">
<title>988955720</title>
<ellipse fill="none" stroke="black" cx="489.45" cy="-297.49" rx="54.49" ry="54.49"/>
<text xml:space="preserve" text-anchor="middle" x="489.45" y="-293.29" font-family="Times,serif" font-size="14.00">988955720</text>
</g>
<!-- 615336326&#45;&gt;988955720 -->
<g id="edge1" class="edge">
<title>615336326-&gt;988955720</title>
<path fill="none" stroke="black" d="M240.38,-583.44C254.94,-594.32 272.22,-604.87 289.97,-610.49 336.15,-625.12 360.28,-639.66 398.96,-610.49 438.39,-580.75 465.69,-445.73 479.05,-363.04"/>
<polygon fill="black" stroke="black" points="482.49,-363.66 480.6,-353.23 475.58,-362.56 482.49,-363.66"/>
</g>
<!-- 680649603 -->
<g id="node3" class="node">
<title>680649603</title>
<ellipse fill="none" stroke="black" cx="344.46" cy="-547.49" rx="54.49" ry="54.49"/>
<text xml:space="preserve" text-anchor="middle" x="344.46" y="-543.29" font-family="Times,serif" font-size="14.00">680649603</text>
</g>
<!-- 615336326&#45;&gt;680649603 -->
<g id="edge2" class="edge">
<title>615336326-&gt;680649603</title>
<path fill="none" stroke="black" d="M254.13,-547.49C261.99,-547.49 270.16,-547.49 278.23,-547.49"/>
<polygon fill="black" stroke="black" points="278,-550.99 288,-547.49 278,-543.99 278,-550.99"/>
</g>
<!-- 764566487 -->
<g id="node4" class="node">
<title>764566487</title>
<ellipse fill="none" stroke="black" cx="344.46" cy="-420.49" rx="54.49" ry="54.49"/>
<text xml:space="preserve" text-anchor="middle" x="344.46" y="-416.29" font-family="Times,serif" font-size="14.00">764566487</text>
</g>
<!-- 615336326&#45;&gt;764566487 -->
<g id="edge3" class="edge">
<title>615336326-&gt;764566487</title>
<path fill="none" stroke="black" d="M240.69,-511.78C257.44,-496.9 277.05,-479.48 294.62,-463.88"/>
<polygon fill="black" stroke="black" points="296.78,-466.64 301.93,-457.38 292.13,-461.41 296.78,-466.64"/>
</g>
<!-- 680649603&#45;&gt;988955720 -->
<g id="edge8" class="edge">
<title>680649603-&gt;988955720</title>
<path fill="none" stroke="black" d="M381.57,-507.34C387.72,-499.67 393.78,-491.53 398.96,-483.49 424.59,-443.7 447.6,-395.46 463.86,-358.08"/>
<polygon fill="black" stroke="black" points="466.93,-359.8 467.67,-349.23 460.5,-357.03 466.93,-359.8"/>
</g>
<!-- 764566487&#45;&gt;988955720 -->
<g id="edge15" class="edge">
<title>764566487-&gt;988955720</title>
<path fill="none" stroke="black" d="M386.44,-385.25C402.89,-371.09 422,-354.66 439.2,-339.86"/>
<polygon fill="black" stroke="black" points="441.02,-342.91 446.32,-333.73 436.46,-337.6 441.02,-342.91"/>
</g>
<!-- 680579148 -->
<g id="node5" class="node">
<title>680579148</title>
<ellipse fill="none" stroke="black" cx="54.49" cy="-155.49" rx="54.49" ry="54.49"/>
<text xml:space="preserve" text-anchor="middle" x="54.49" y="-151.29" font-family="Times,serif" font-size="14.00">680579148</text>
</g>
<!-- 680579148&#45;&gt;988955720 -->
<g id="edge6" class="edge">
<title>680579148-&gt;988955720</title>
<path fill="none" stroke="black" d="M109,-149.79C179.69,-144.75 306.09,-144.53 398.96,-193.49 420.41,-204.81 438.96,-223.58 453.52,-242.08"/>
<polygon fill="black" stroke="black" points="450.61,-244.03 459.43,-249.9 456.19,-239.81 450.61,-244.03"/>
</g>
<!-- 733710281 -->
<g id="node6" class="node">
<title>733710281</title>
<ellipse fill="none" stroke="black" cx="344.46" cy="-92.49" rx="54.49" ry="54.49"/>
<text xml:space="preserve" text-anchor="middle" x="344.46" y="-88.29" font-family="Times,serif" font-size="14.00">733710281</text>
</g>
<!-- 680579148&#45;&gt;733710281 -->
<g id="edge4" class="edge">
<title>680579148-&gt;733710281</title>
<path fill="none" stroke="black" d="M108.4,-146.6C148.53,-139.55 204.96,-129.01 253.97,-117.49 262.79,-115.42 272.05,-113.05 281.13,-110.62"/>
<polygon fill="black" stroke="black" points="281.88,-114.04 290.61,-108.04 280.04,-107.29 281.88,-114.04"/>
</g>
<!-- 910720218 -->
<g id="node7" class="node">
<title>910720218</title>
<ellipse fill="none" stroke="black" cx="344.46" cy="-256.49" rx="54.49" ry="54.49"/>
<text xml:space="preserve" text-anchor="middle" x="344.46" y="-252.29" font-family="Times,serif" font-size="14.00">910720218</text>
</g>
<!-- 680579148&#45;&gt;910720218 -->
<g id="edge5" class="edge">
<title>680579148-&gt;910720218</title>
<path fill="none" stroke="black" d="M106.06,-174.37C118.75,-179.04 132.35,-184 144.99,-188.49 190.63,-204.72 242.42,-222.44 281.64,-235.72"/>
<polygon fill="black" stroke="black" points="280.33,-238.98 290.93,-238.86 282.57,-232.34 280.33,-238.98"/>
</g>
<!-- 697629222 -->
<g id="node8" class="node">
<title>697629222</title>
<ellipse fill="none" stroke="black" cx="199.48" cy="-54.49" rx="54.49" ry="54.49"/>
<text xml:space="preserve" text-anchor="middle" x="199.48" y="-50.29" font-family="Times,serif" font-size="14.00">697629222</text>
</g>
<!-- 680579148&#45;&gt;697629222 -->
<g id="edge7" class="edge">
<title>680579148-&gt;697629222</title>
<path fill="none" stroke="black" d="M99.56,-124.37C113.97,-114.19 130.12,-102.78 145.14,-92.17"/>
<polygon fill="black" stroke="black" points="146.93,-95.19 153.07,-86.56 142.89,-89.48 146.93,-95.19"/>
</g>
<!-- 733710281&#45;&gt;988955720 -->
<g id="edge11" class="edge">
<title>733710281-&gt;988955720</title>
<path fill="none" stroke="black" d="M379.43,-134.49C386.05,-143 392.83,-151.95 398.96,-160.49 417.83,-186.79 437.64,-216.82 453.8,-242.05"/>
<polygon fill="black" stroke="black" points="450.66,-243.64 458.99,-250.19 456.57,-239.87 450.66,-243.64"/>
</g>
<!-- 910720218&#45;&gt;988955720 -->
<g id="edge16" class="edge">
<title>910720218-&gt;988955720</title>
<path fill="none" stroke="black" d="M397.08,-271.29C406.5,-273.99 416.42,-276.84 426.1,-279.62"/>
<polygon fill="black" stroke="black" points="424.87,-282.9 435.45,-282.3 426.8,-276.17 424.87,-282.9"/>
</g>
<!-- 697629222&#45;&gt;988955720 -->
<g id="edge10" class="edge">
<title>697629222-&gt;988955720</title>
<path fill="none" stroke="black" d="M248.81,-31.03C292.14,-13.73 355.42,1.87 398.96,-29.49 462.51,-75.27 481.6,-168.19 486.97,-231.65"/>
<polygon fill="black" stroke="black" points="483.45,-231.52 487.68,-241.23 490.43,-231 483.45,-231.52"/>
</g>
<!-- 697629222&#45;&gt;733710281 -->
<g id="edge9" class="edge">
<title>697629222-&gt;733710281</title>
<path fill="none" stroke="black" d="M252.5,-68.32C261.69,-70.76 271.33,-73.32 280.77,-75.83"/>
<polygon fill="black" stroke="black" points="279.69,-79.17 290.25,-78.35 281.49,-72.4 279.69,-79.17"/>
</g>
<!-- 743512162 -->
<g id="node9" class="node">
<title>743512162</title>
<ellipse fill="none" stroke="black" cx="199.48" cy="-338.49" rx="54.49" ry="54.49"/>
<text xml:space="preserve" text-anchor="middle" x="199.48" y="-334.29" font-family="Times,serif" font-size="14.00">743512162</text>
</g>
<!-- 743512162&#45;&gt;988955720 -->
<g id="edge13" class="edge">
<title>743512162-&gt;988955720</title>
<path fill="none" stroke="black" d="M254.25,-335.47C294.34,-332.7 350.33,-327.75 398.96,-319.49 407.61,-318.02 416.66,-316.17 425.54,-314.17"/>
<polygon fill="black" stroke="black" points="426.25,-317.6 435.19,-311.92 424.65,-310.79 426.25,-317.6"/>
</g>
<!-- 743512162&#45;&gt;764566487 -->
<g id="edge14" class="edge">
<title>743512162-&gt;764566487</title>
<path fill="none" stroke="black" d="M247.3,-365.34C259.89,-372.56 273.64,-380.45 286.71,-387.95"/>
<polygon fill="black" stroke="black" points="284.81,-390.89 295.23,-392.83 288.29,-384.82 284.81,-390.89"/>
</g>
<!-- 743512162&#45;&gt;910720218 -->
<g id="edge12" class="edge">
<title>743512162-&gt;910720218</title>
<path fill="none" stroke="black" d="M247.3,-311.64C259.89,-304.42 273.64,-296.53 286.71,-289.04"/>
<polygon fill="black" stroke="black" points="288.29,-292.17 295.23,-284.16 284.81,-286.09 288.29,-292.17"/>
</g>
</g>
</svg>